<?xml version="1.0" encoding="utf-8"?>
<svg height="72" viewBox="0 0 59 72" width="59" xmlns="http://www.w3.org/2000/svg">
  <path
    d="m7.62857 58.987c0-.41-.02832-.82238.00494-1.22969.13911-1.70351.26312-3.339-1.64791-4.32738a3.99931 3.99931 0 0 1 -1.27635-1.64474c-1.43785-2.54919-2.81652-5.13165-4.24616-7.68551a2.796 2.796 0 0 1 .65717-3.78215c2.6754-2.45067 5.31-4.95029 8.07032-7.30187a44.60282 44.60282 0 0 1 4.08294-2.67232 3.64051 3.64051 0 0 0 1.17315-1.14728 84.32247 84.32247 0 0 0 7.73748-17.83082c.53154-1.91337 1.3337-2.29549 3.65386-1.68079a24.50727 24.50727 0 0 1 11.9391 7.37108 40.11015 40.11015 0 0 1 7.32006 11.91347 4.84183 4.84183 0 0 0 1.42837 1.55218c1.28053 1.09688 2.66012 2.08266 3.89858 3.22313 2.23671 2.05973 4.37148 4.23 6.60284 6.29576 1.55066 1.43557 1.81837 2.48153.82156 4.33638q-1.87042 3.4805-3.803 6.9274a7.65243 7.65243 0 0 1 -1.18624 1.71075c-2.16682 1.65766-1.6392 3.37161-1.76041 5.32963a42.84145 42.84145 0 0 1 -.91007 8.14978c-1.28832 4.93079-5.28075 6.66361-9.972 4.62867a31.98076 31.98076 0 0 1 -3.2188-1.78819 14.23217 14.23217 0 0 0 -15.1705-.00751 26.439 26.439 0 0 1 -4.74009 2.24889c-3.50195 1.1606-6.66833-.0778-7.92916-3.50534a25.11505 25.11505 0 0 1 -1.52968-9.08353zm38.7202-11.71847c-.5307-2.33654-.97547-4.4477-1.49882-6.5392a1.96629 1.96629 0 0 0 -2.35086-1.616c-1.09229.12492-2.05358.12349-2.47866 1.6056a11.26573 11.26573 0 0 1 -21.67246.29644c-.48347-1.48468-1.48561-1.42058-2.55245-1.547a1.8707 1.8707 0 0 0 -2.25728 1.48534c-.49917 2.02264-.92085 4.06441-1.39753 6.1994a25.42773 25.42773 0 0 1 3.86511.29434 1.61249 1.61249 0 0 1 1.396 1.34291 1.87549 1.87549 0 0 1 -1.39664 1.26637c-.31794.10472-.6683.22-1.26721.39859a10.44086 10.44086 0 0 1 2.71557 1.07415 2.48873 2.48873 0 0 1 .9052 1.94955c-.20222.985-1.10757 1.23074-2.10376.7865-.82684-.36872-1.683-.67174-2.67452-1.06232.31131 1.55863 3.10463 2.16287 1.37772 3.91928-1.61587 1.64344-2.39133-.79022-3.61292-1.19658a22.63509 22.63509 0 0 0 -.11981 9.90459c.9874 3.02343 3.51805 3.95854 6.19147 2.23283 1.22919-.79344 2.36568-1.72889 3.57147-2.5604 5.553-3.8294 11.12868-3.8172 16.67731.03884 1.20257.83573 2.33407 1.776 3.55431 2.58353 2.4057 1.59195 4.55847 1.11087 5.84518-1.49131 1.75185-3.54284 1.06178-7.214.365-11.15244-.75825.69662-1.1973 1.35461-1.79954 1.5838a2.83483 2.83483 0 0 1 -2.12779.03546c-.89492-.51281-.69076-1.4359.04195-2.05265a11.19712 11.19712 0 0 1 1.788-1.03137l-.62565-.718a10.7567 10.7567 0 0 1 -2.56338.92449c-.65666.06813-1.72515.26319-2.15037-.69105-.21405-.78093.46421-1.53239.96567-1.9584a9.52593 9.52593 0 0 1 2.59246-1.09733c-.32218-.18223-.45983-.32005-.60977-.33506-.90488-.09062-2.0486-.21587-1.74358-1.37015.16689-.63158 1.23016-1.23613 1.99976-1.44435a13.06074 13.06074 0 0 1 3.15082-.05845zm2.13454-8.87495-.41818.391c.51241 2.44407 1.01482 4.89035 1.552 7.329a1.02363 1.02363 0 0 0 .49144.67837c1.63212.56168 2.3259-.817 3.07593-1.73592.63913-.783 2.036-1.526.95746-2.9413a1.03549 1.03549 0 0 0 -.25533-.23866q-2.69942-1.74478-5.40332-3.48254zm-38.02923-.12325c-1.54162.83876-2.74691 1.40785-3.86258 2.11778-3.39317 2.15916-3.43384 3.11445-.34356 5.78448.04414.03814.0887.07586.134.11257 1.36735 1.10706 2.23245.85422 2.60414-.82743.48792-2.20761.9086-4.43006 1.468-7.18745zm19.51377-7.60156c-.2078.23472-.909.67111-1.01037 1.21859-.18579 1.00309 1.55705 2.29721 2.93662 2.11935a2.10049 2.10049 0 0 0 1.50166-1.19685c.22609-.99573-1.49696-2.15431-3.42791-2.14114z" />
  <g fill="#ed8b00">
    <path
      d="m42.21273 4.91744c-2.01456-.88385-2.669-2.28808-2.20808-4.73754 2.1852 1.05677 3.09007 2.99822 2.20808 4.73754z" />
    <path d="m46.07474 7.49867c-1.61539-1.41567-1.77918-2.91767-.56947-5.2225a3.58723 3.58723 0 0 1 .56947 5.2225z" />
    <path d="m47.68884 24.67457a3.719 3.719 0 0 1 5.21451-1.41682c-1.66493 1.91559-3.14859 2.34534-5.21451 1.41682z" />
    <path
      d="m13.05073 2.15248c1.17513 2.4298 1.04593 3.71968-.44914 5.29917-1.48159-1.3771-1.34524-3.34903.44914-5.29917z" />
    <path
      d="m48.83968 11.30993c-1.1218-1.784-.60774-3.79154 1.31124-5.1208.809 2.53187.45662 3.90803-1.31124 5.1208z" />
    <path
      d="m8.36994 6.00931c1.99634 1.67147 2.42278 3.29151 1.47216 5.247-1.76956-.94039-2.13935-2.18374-1.47216-5.247z" />
    <path
      d="m54.06587 17.10671c-.739 2.4009-2.03472 3.41555-4.28918 3.472.00737-2.006 1.01131-2.84557 4.28918-3.472z" />
    <path
      d="m18.63135 0c.29432 2.63561-.29336 3.89354-2.19614 4.89172-1.01506-1.59204-.23239-3.42279 2.19614-4.89172z" />
    <path
      d="m5.58575 23.16308c2.32665-.92892 4.03481-.44938 5.21878 1.37736-1.83809 1.00571-3.29953.64625-5.21878-1.37736z" />
    <path
      d="m4.53524 17.11586c2.9171.34721 4.14255 1.333 4.25784 3.30507-2.16796.12316-3.52975-.90128-4.25784-3.30507z" />
    <path
      d="m5.50745 11.34953c2.37542.73917 3.3942 2.2936 2.79937 4.27123-1.9407-.48102-2.8923-1.93296-2.79937-4.27123z" />
    <path d="m50.16278 15.73959c-.396-2.16294.50891-3.53284 2.87807-4.35674a3.7696 3.7696 0 0 1 -2.87807 4.35674z" />
    <path
      d="m10.02155 17.40039c-.46909-2.14.57269-3.3098 2.11636-4.29819.52322 2.01839-.10649 3.34486-2.11636 4.29819z" />
    <path
      d="m46.50193 23.19656c-1.14839-1.78827-.75377-3.282.25318-4.82883 1.34075 1.97427 1.25717 3.53115-.25318 4.82883z" />
    <path
      d="m46.49547 13.15993c1.44812 1.02966 2.58189 2.15743 2.0542 4.16891a2.98492 2.98492 0 0 1 -2.0542-4.16891z" />
    <path
      d="m11.35472 11.10509c.74543-1.79857 2.21021-2.24462 3.98165-2.20543-.82243 2.20291-2.23602 2.9924-3.98165 2.20543z" />
    <path
      d="m11.84234 18.36291c.96294 1.54338 1.43826 3.02068.2365 4.63208-1.51599-1.01821-1.61314-2.74525-.2365-4.63208z" />
    <path d="m47.303 11.29675c-2.15853.43941-3.17658-.16476-4.014-2.27365a3.62076 3.62076 0 0 1 4.014 2.27365z" />
  </g>
  <path
    d="m46.34877 47.26848a13.06074 13.06074 0 0 0 -3.15087.05846c-.7696.20822-1.83287.81277-1.99976 1.44435-.305 1.15428.8387 1.27953 1.74358 1.37015.14994.015.28759.15283.60977.33506a9.52593 9.52593 0 0 0 -2.59249 1.09733 1.90446 1.90446 0 0 0 -.87149 2.023c.36815.80013 1.39953.69458 2.05619.62645a10.7567 10.7567 0 0 0 2.56338-.92449l.62565.718a11.19712 11.19712 0 0 0 -1.788 1.03137c-.73271.61675-.93687 1.53984-.04195 2.05265a2.83483 2.83483 0 0 0 2.12779-.03546c.60224-.22919 1.04129-.88718 1.79954-1.5838.69683 3.93839 1.3869 7.6096-.365 11.15244-1.28671 2.60218-3.43948 3.08326-5.84518 1.49131-1.22024-.80749-2.35174-1.7478-3.55431-2.58353-5.54863-3.856-11.12429-3.86824-16.67731-.03884-1.20579.83151-2.34228 1.767-3.57147 2.5604-2.67342 1.72571-5.20407.7906-6.19147-2.23283a22.63509 22.63509 0 0 1 .11981-9.90459c1.22159.40636 1.997 2.84 3.61292 1.19658 1.72691-1.75641-1.06641-2.36065-1.37772-3.91928.99155.39058 1.84768.6936 2.67452 1.06232.99619.44424 1.90154.19848 2.10376-.7865a2.48873 2.48873 0 0 0 -.9052-1.94955 10.44086 10.44086 0 0 0 -2.71557-1.07415 4.91827 4.91827 0 0 0 1.26721-.39859c.50468-.36852 1.12851-.52283 1.39664-1.26637-.04552-.71194-.85716-1.22156-1.396-1.34291a25.42773 25.42773 0 0 0 -3.86511-.29434c.47668-2.135.89836-4.17676 1.39753-6.1994a1.8707 1.8707 0 0 1 2.25728-1.48534c1.06684.12639 2.069.06229 2.55245 1.547a11.26573 11.26573 0 0 0 21.67246-.29644c.42508-1.48211 1.38637-1.48068 2.47866-1.6056a1.96629 1.96629 0 0 1 2.35086 1.616c.52343 2.09144.9682 4.2026 1.4989 6.53914z"
    fill="#fff" />
  <path
    d="m48.48331 38.39353q2.70237 1.74011 5.4033 3.48244a1.03549 1.03549 0 0 1 .25533.23866c1.07853 1.41528-.31833 2.15825-.95746 2.9413-.75.91893-1.44381 2.2976-3.07593 1.73592a1.02363 1.02363 0 0 1 -.49144-.67837c-.53716-2.43862-1.03957-4.8849-1.552-7.329z"
    fill="#fff" />
  <path
    d="m10.45408 38.27028c-.5594 2.75739-.98 4.97984-1.468 7.1874-.37169 1.68165-1.23679 1.93449-2.60414.82743-.04533-.03671-.08989-.07443-.134-.11257-3.09028-2.67-3.04961-3.62532.34356-5.78448 1.11567-.70993 2.32096-1.27906 3.86258-2.11778z"
    fill="#fff" />
  <circle cx="29.21836" cy="37.73794" fill="#f80000" r="8.22861" />
  <path
    d="m30.14742 30.81808c1.97753.04235 3.36538 1.0363 3.13929 2.032a1.87587 1.87587 0 0 1 -1.39261 1.1566c-1.37957.17786-3.12241-1.11626-2.93662-2.11935a1.64555 1.64555 0 0 1 1.18994-1.06925z"
    fill="#fff" />
</svg>