<?xml version="1.0" encoding="utf-8"?>
<svg height="72" viewBox="0 0 72 72" width="72" xmlns="http://www.w3.org/2000/svg">
  <path d="m25.797 23.279 30.672-13.839v7.855l-21.882 8.603 21.882 9.538v7.855l-30.672-14.588z" fill="#f25022" />
  <path d="m14.388 27.768 30.298 14.588v5.798l-30.298 13.84v-7.107l22.984-9.315-22.984-9.29z" fill="#7fba00" />
  <path
    d="m22.99136 4.57689v-4.57689h-13.08219a9.90916 9.90916 0 0 0 -9.90917 9.90914v52.09769a9.15136 9.15136 0 0 0 9.15138 9.15135v-4.64448c-1.58972-.00779-4.40706-1.27218-4.39512-3.88859l-.11538-53.06811a4.8644 4.8644 0 0 1 4.81473-4.842z"
    fill="#00a4ef" />
  <path
    d="m46.62418 4.57689v-4.57689h14.52382a9.90916 9.90916 0 0 1 9.9092 9.90914v52.09769a9.15136 9.15136 0 0 1 -9.15138 9.15135h-15.37782v-4.64448h15.37782c1.58972-.00779 4.40706-1.27218 4.39512-3.88859l.11538-53.06811a4.8644 4.8644 0 0 0 -4.81473-4.842z"
    fill="#00a4ef" />
  <path d="m14.38813 65.5474h6.45242v6.4524h-6.45242z" fill="#ffb900" />
</svg>