<svg xmlns="http://www.w3.org/2000/svg" viewBox="0 0 28.244897959183675 20.632653061224495" width="28.244897959183675"
    height="20.632653061224495" style="">
    <rect id="backgroundrect" width="100%" height="100%" x="0" y="0" fill="none" stroke="none" class="" style="" />
    <g class="currentLayer" style="">
        <title>Layer 1</title>
        <path
            d="M26.599448921203614,1.3067141494750976 a4.436,4.436 0 0 0 -6.1690000000000005,-0.1 a0.41300000000000003,0.41300000000000003 0 0 0 -0.133,0.30000000000000004 a0.42700000000000005,0.42700000000000005 0 0 0 0.12300000000000001,0.30700000000000005 l0.56,0.559 a0.42300000000000004,0.42300000000000004 0 0 0 0.553,0.03900000000000001 a2.517,2.517 0 0 1 1.522,-0.508 a2.545,2.545 0 0 1 1.8,4.343 C21.342448921203612,9.778714149475098 16.622448921203613,-0.09628585052490202 5.951448921203613,4.985714149475097 a1.449,1.449 0 0 0 -0.7000000000000001,1.924 a1.129,1.129 0 0 0 0.05700000000000001,0.10900000000000001 L7.135448921203613,10.185714149475098 a1.452,1.452 0 0 0 1.9620000000000002,0.54 l0.04600000000000001,-0.026000000000000006 l-0.036000000000000004,0.026000000000000006 l0.812,-0.456 a18.635,18.635 0 0 0 2.557,-1.9 a0.44300000000000006,0.44300000000000006 0 0 1 0.5820000000000001,-0.019000000000000003 a0.41700000000000004,0.41700000000000004 0 0 1 0.06000000000000001,0.5870000000000001 a0.42500000000000004,0.42500000000000004 0 0 1 -0.06000000000000001,0.06000000000000001 a19.372,19.372 0 0 1 -2.6740000000000004,2.017 l-0.029000000000000005,0.016000000000000004 l-0.811,0.453 a2.263,2.263 0 0 1 -1.122,0.29400000000000004 A2.324,2.324 0 0 1 6.407448921203613,10.615714149475096 L4.674448921203613,7.627714149475098 C1.3514489212036134,9.975714149475097 -0.6665510787963866,14.498714149475099 0.4164489212036133,20.221714149475098 a0.42400000000000004,0.42400000000000004 0 0 0 0.41700000000000004,0.3430000000000001 H2.802448921203613 a0.42100000000000004,0.42100000000000004 0 0 0 0.43400000000000005,-0.36900000000000005 a2.89,2.89 0 0 1 5.732,0 a0.42100000000000004,0.42100000000000004 0 0 0 0.41100000000000003,0.36900000000000005 h1.92 a0.42500000000000004,0.42500000000000004 0 0 0 0.42100000000000004,-0.36900000000000005 a2.887,2.887 0 0 1 5.729,0 a0.42000000000000004,0.42000000000000004 0 0 0 0.41700000000000004,0.36900000000000005 h1.9 a0.41900000000000004,0.41900000000000004 0 0 0 0.42000000000000004,-0.41400000000000003 c0.04600000000000001,-2.677 0.7670000000000001,-5.752 2.826,-7.291 C30.122448921203613,7.530714149475097 28.248448921203615,2.9627141494750973 26.599448921203614,1.3067141494750976 zm-7.265,8.061 v0 L17.976448921203612,8.685714149475098 a0.8540000000000001,0.8540000000000001 0 1 1 1.358,0.6850000000000002 z"
            style="fill:#02303a" id="svg_1" class="" />
    </g>
</svg>