<?xml version="1.0" encoding="utf-8"?>
<svg height="72" viewBox="0 0 72 72" width="72" xmlns="http://www.w3.org/2000/svg">
  <path
    d="m0 0v72h72v-72zm36.05417 67.12374-31.38954-31.12011 31.38954-31.1201 31.38953 31.1201zm12.02234-21.60147v-18.64853h4.53894a9.52842 9.52842 0 0 1 3.01721.2799 3.83107 3.83107 0 0 1 2.01626 1.82542 7.20024 7.20024 0 0 1 .81221 3.63191 7.80652 7.80652 0 0 1 -.46823 2.88755 4.97394 4.97394 0 0 1 -1.18967 1.83809 3.71023 3.71023 0 0 1 -1.46666.884 9.20242 9.20242 0 0 1 -2.58747.26739h-1.8441v7.03429zm2.82849-15.49359v5.29169h1.548a3.74838 3.74838 0 0 0 1.88983-.29274 2.05108 2.05108 0 0 0 .88387-.91576 3.13514 3.13514 0 0 0 .32019-1.45019 2.92786 2.92786 0 0 0 -.44914-1.679 1.8912 1.8912 0 0 0 -1.13708-.82685 6.45321 6.45321 0 0 0 -1.6892-.1271zm-12.8034 15.49359-5.4482-18.64853h3.33744l3.85713 13.802 3.73249-13.802h3.26524l-5.45842 18.64853zm-21.49179 0v-18.64853h4.65659l2.79613 12.72065 2.76462-12.72065h4.66727v18.64853h-2.89081v-14.67959l-3.05883 14.67959h-2.99578l-3.0485-14.67959v14.67959z"
    fill="#0089d1"/>
</svg>
